<?xml version="1.0" encoding="UTF-8"?>
<svg width="23px" height="23px" viewBox="0 0 23 23" version="1.1" xmlns="http://www.w3.org/2000/svg" xmlns:xlink="http://www.w3.org/1999/xlink">
    <!-- Generator: Sketch 52.6 (67491) - http://www.bohemiancoding.com/sketch -->
    <title>down</title>
    <desc>Created with Sketch.</desc>
    <g id="Page-1" stroke="none" stroke-width="1" fill="none" fill-rule="evenodd">
        <g id="smokePro-vizitka" transform="translate(-1144.000000, -649.000000)" fill="#7A7A7A">
            <g id="btn-copy-2" transform="translate(1108.000000, 632.000000)">
                <g id="down" transform="translate(36.000000, 17.000000)">
                    <path d="M23,18.0714286 L23,21.3571429 C23,22.2631786 22.2631786,23 21.3571429,23 L1.64285714,23 C0.736821429,23 0,22.2631786 0,21.3571429 L0,18.0714286 C0,17.618 0.368,17.25 0.821428571,17.25 C1.27485714,17.25 1.64285714,17.618 1.64285714,18.0714286 L1.64285714,21.3571429 L21.3571429,21.3571429 L21.3571429,18.0714286 C21.3571429,17.618 21.7251429,17.25 22.1785714,17.25 C22.632,17.25 23,17.618 23,18.0714286 Z" id="Path"></path>
                    <path d="M5.16925,12.08075 C4.84807143,11.7595714 4.84807143,11.2404286 5.16925,10.91925 C5.49042857,10.5980714 6.00957143,10.5980714 6.33075,10.91925 L10.6785714,15.2670714 L10.6785714,0.821428571 C10.6785714,0.368 11.0465714,0 11.5,0 C11.9534286,0 12.3214286,0.368 12.3214286,0.821428571 L12.3214286,15.2670714 L16.66925,10.91925 C16.9904286,10.5980714 17.5095714,10.5980714 17.83075,10.91925 C18.1519286,11.2404286 18.1519286,11.7595714 17.83075,12.08075 L12.08075,17.83075 C11.7554643,18.1568571 11.2338571,18.1461786 10.9184286,17.83075 L5.16925,12.08075 Z" id="Path"></path>
                </g>
            </g>
        </g>
    </g>
</svg>