<?xml version="1.0" encoding="UTF-8"?>
<svg width="22px" height="26px" viewBox="0 0 22 26" version="1.1" xmlns="http://www.w3.org/2000/svg" xmlns:xlink="http://www.w3.org/1999/xlink">
    <!-- Generator: Sketch 52.6 (67491) - http://www.bohemiancoding.com/sketch -->
    <title>file</title>
    <desc>Created with Sketch.</desc>
    <g id="Page-1" stroke="none" stroke-width="1" fill="none" fill-rule="evenodd">
        <g id="smokePro-vizitka" transform="translate(-633.000000, -648.000000)" fill="#7A7A7A">
            <g id="btn-copy" transform="translate(597.000000, 632.000000)">
                <g id="file" transform="translate(36.000000, 16.000000)">
                    <path d="M20.7385139,3.43904483 L18.5394815,3.43904483 L18.5394815,1.2505848 C18.5395324,0.562725146 17.974,0 17.2831898,0 L1.26148611,0 C0.57037037,0 0.00493981481,0.562725146 0.00493981481,1.2505848 L0.00493981481,21.2596881 C0.00493981481,21.9474971 0.57037037,22.5102729 1.26153704,22.5102729 L3.46056944,22.5102729 L3.46056944,24.6987836 C3.46056944,25.3865926 4.02574537,25.9493684 4.71716667,25.9493684 L15.3978102,25.9493684 C16.0886204,25.9493684 17.0662454,25.563575 17.5691898,25.0924327 L21.079463,21.8040663 C21.5830185,21.332924 21.9945509,20.3843548 21.9945509,19.6965458 L21.995162,4.68973099 C21.9951111,4.00182066 21.4296296,3.43904483 20.7385139,3.43904483 Z M3.46046759,4.68968031 L3.46046759,21.572347 L1.26148611,21.572347 C1.09124074,21.572347 0.947375,21.4291696 0.947375,21.2597388 L0.947375,1.2505848 C0.947375,1.081154 1.09124074,0.937976608 1.26148611,0.937976608 L17.2832407,0.937976608 C17.4531806,0.937976608 17.5973519,1.081154 17.5973519,1.2505848 L17.5973519,3.43909552 L4.71706481,3.43909552 C4.02564352,3.43909552 3.46046759,4.00182066 3.46046759,4.68968031 Z M20.4335185,21.1211735 L16.9232454,24.4092865 C16.851338,24.4765419 16.7576852,24.5424795 16.6543056,24.6052749 L16.6543056,21.7286511 C16.6543056,21.5138596 16.741338,21.3206082 16.8848981,21.1768226 C17.0297315,21.0339493 17.2238611,20.9470799 17.4396852,20.9470799 L20.5827315,20.9470799 C20.5339954,21.0129669 20.484088,21.0736335 20.4335185,21.1211735 Z M21.0520139,19.6964444 C21.0520139,19.7892943 21.0350046,19.8968421 21.009287,20.0090526 L17.4396343,20.0090526 C16.48625,20.0109279 15.7137546,20.7797271 15.7118194,21.7286004 L15.7118194,24.9734815 C15.5996806,24.9960351 15.4916157,25.0112904 15.3977083,25.0112904 L4.71706481,25.0112904 L4.71706481,25.0113411 C4.54646296,25.0113411 4.4029537,24.8681637 4.4029537,24.6987329 L4.4029537,4.68962963 C4.4029537,4.52019883 4.54651389,4.37702144 4.71706481,4.37702144 L20.738463,4.37702144 C20.9087083,4.37702144 21.0525741,4.52019883 21.0525741,4.68962963 L21.0520139,19.6964444 Z" id="Shape" fill-rule="nonzero"></path>
                    <path d="M17.2831898,7.81601559 L8.173,7.81601559 C7.91256481,7.81601559 7.70178241,8.02578947 7.70178241,8.28497856 C7.70178241,8.54416764 7.91261574,8.75394152 8.173,8.75394152 L17.2831898,8.75394152 C17.5433194,8.75394152 17.7544074,8.54416764 17.7544074,8.28497856 C17.7544074,8.02578947 17.5433194,7.81601559 17.2831898,7.81601559 Z" id="Path"></path>
                    <path d="M17.2831898,14.0688889 L8.173,14.0688889 C7.91256481,14.0688889 7.70178241,14.2786628 7.70178241,14.5378519 C7.70178241,14.7970409 7.91261574,15.0068148 8.173,15.0068148 L17.2831898,15.0068148 C17.5433194,15.0068148 17.7544074,14.7970409 17.7544074,14.5378519 C17.7544074,14.2786121 17.5433194,14.0688889 17.2831898,14.0688889 Z" id="Path"></path>
                    <path d="M13.199338,17.1953255 L8.17305093,17.1953255 C7.91261574,17.1953255 7.70183333,17.4050994 7.70183333,17.6642885 C7.70183333,17.9234776 7.91261574,18.1332515 8.17305093,18.1332515 L13.199338,18.1332515 C13.4594676,18.1332515 13.67025,17.9234776 13.67025,17.6642885 C13.67025,17.4050994 13.4594676,17.1953255 13.199338,17.1953255 Z" id="Path"></path>
                    <path d="M17.2831898,10.9424522 L8.173,10.9424522 C7.91256481,10.9424522 7.70178241,11.1522261 7.70178241,11.4114152 C7.70178241,11.6706043 7.91261574,11.8803782 8.173,11.8803782 L17.2831898,11.8803782 C17.5433194,11.8803782 17.7544074,11.6706043 17.7544074,11.4114152 C17.7544074,11.1522261 17.5433194,10.9424522 17.2831898,10.9424522 Z" id="Path"></path>
                </g>
            </g>
        </g>
    </g>
</svg>