<?xml version="1.0" encoding="UTF-8"?>
<svg width="18px" height="20px" viewBox="0 0 18 20" version="1.1" xmlns="http://www.w3.org/2000/svg" xmlns:xlink="http://www.w3.org/1999/xlink">
    <!-- Generator: Sketch 52.6 (67491) - http://www.bohemiancoding.com/sketch -->
    <title>linked</title>
    <desc>Created with Sketch.</desc>
    <g id="Page-1" stroke="none" stroke-width="1" fill="none" fill-rule="evenodd">
        <g id="smokePro-vizitka" transform="translate(-1106.000000, -952.000000)" fill="#7A7A7A" fill-rule="nonzero">
            <g id="contact" transform="translate(740.000000, 952.000000)">
                <g id="Group-3" transform="translate(366.000000, 0.000000)">
                    <g id="linked">
                        <path d="M4.1104349,5.92285156 L0.710817834,5.92285156 C0.329714862,5.92285156 0.0196936543,6.23031617 0.0196936543,6.60827637 L0.0196936543,19.3147278 C0.0196936543,19.6925354 0.329714862,20 0.710817834,20 L4.1104349,20 C4.49138403,20 4.80140523,19.6925354 4.80140523,19.3147278 L4.80140523,6.60827637 C4.80140523,6.23031617 4.49138403,5.92285156 4.1104349,5.92285156 Z M3.61809354,18.8264465 L1.20300534,18.8264465 L1.20300534,7.09640504 L3.61809354,7.09640504 L3.61809354,18.8264465 Z" id="Shape"></path>
                        <path d="M2.41062637,0 C1.0813047,0 0,1.0723877 0,2.39059449 C0,3.70895387 1.0813047,4.78134156 2.41062637,4.78134156 C3.7396403,4.78134156 4.82109889,3.70895387 4.82109889,2.39059449 C4.82109889,1.0723877 3.73979418,0 2.41062637,0 Z M2.41062637,3.60778809 C1.73381085,3.60778809 1.18331169,3.06182859 1.18331169,2.39059449 C1.18331169,1.71951293 1.73381085,1.17355348 2.41062637,1.17355348 C3.087288,1.17355348 3.6377872,1.71951293 3.6377872,2.39059449 C3.6377872,3.06167602 3.087288,3.60778809 2.41062637,3.60778809 Z" id="Shape"></path>
                        <path d="M15.796157,7.41256715 C14.983486,6.73980711 13.9503385,6.38000488 12.888112,6.39953613 C12.2283746,6.41159059 11.5837151,6.56936645 10.9995213,6.85501098 L10.9995213,6.57760621 C10.9995213,6.21612547 10.7039627,5.92300414 10.3394762,5.92300414 L6.87800875,5.92300414 C6.5135223,5.92300414 6.21796364,6.21612547 6.21796364,6.57760621 L6.21796364,19.345398 C6.21796364,19.7070313 6.5135223,20 6.87800875,20 L10.4077886,20 C10.7345801,20 10.9995213,19.7372437 10.9995213,19.4132996 L10.9995213,11.8008423 C10.9995213,11.1491394 11.5137103,10.5976868 12.1703706,10.5783081 C12.8528788,10.5583191 13.4144557,11.1029053 13.4144557,11.7753601 L13.4144557,19.4255066 C13.4144557,19.7427368 13.673858,20 13.9937261,20 L17.3861119,20 C17.7059799,20 17.9653823,19.7427368 17.9653823,19.4255066 L17.9653823,12.0080566 C17.9653823,10.2288818 17.1747128,8.55377195 15.796157,7.41256715 Z M16.7820706,18.8264465 L14.5979212,18.8264465 L14.5979212,11.7753601 C14.5979212,10.4679871 13.5253863,9.40429688 12.2069885,9.40429688 C10.8887445,9.40429688 9.81620965,10.4679871 9.81620965,11.7753601 L9.81620965,18.8264465 L7.40127529,18.8264465 L7.40127529,7.09640504 L9.81620965,7.09640504 L9.81620965,7.94921875 L9.81697896,7.94921875 C9.81682507,8.08746336 9.86528993,8.22631836 9.96498906,8.33816527 C10.1814654,8.58078004 10.555491,8.60336305 10.8001231,8.3885193 C11.383086,7.87673949 12.132368,7.5871277 12.9099596,7.57278441 C13.6883206,7.55813598 14.4437569,7.8215027 15.0379513,8.31344605 C16.1464886,9.23110961 16.7820706,10.5776977 16.7820706,12.0080566 L16.7820706,18.8264465 Z" id="Shape"></path>
                    </g>
                </g>
            </g>
        </g>
    </g>
</svg>