<?xml version="1.0" encoding="UTF-8"?>
<svg width="20px" height="20px" viewBox="0 0 20 20" version="1.1" xmlns="http://www.w3.org/2000/svg" xmlns:xlink="http://www.w3.org/1999/xlink">
    <!-- Generator: Sketch 52.6 (67491) - http://www.bohemiancoding.com/sketch -->
    <title>phone</title>
    <desc>Created with Sketch.</desc>
    <g id="Page-1" stroke="none" stroke-width="1" fill="none" fill-rule="evenodd">
        <g id="smokePro-vizitka" transform="translate(-740.000000, -952.000000)" fill="#7A7A7A" fill-rule="nonzero">
            <g id="contact" transform="translate(740.000000, 952.000000)">
                <g id="Group">
                    <g id="phone">
                        <path d="M19.3566667,14.396 C19.3213333,14.3666667 15.3286667,11.5093333 14.2453333,11.6966667 C13.7246667,11.7886667 13.4266667,12.1433333 12.83,12.8546667 C12.734,12.9693333 12.5026667,13.2433333 12.324,13.4386667 C11.9468846,13.3158063 11.5790544,13.1660898 11.2233333,12.9906667 C9.3870144,12.0966724 7.90332758,10.6129856 7.00933333,8.77666667 C6.8339102,8.42094563 6.68419373,8.05311544 6.56133333,7.676 C6.75733333,7.49666667 7.032,7.26533333 7.14933333,7.16666667 C7.85666667,6.57333333 8.21133333,6.27533333 8.30333333,5.754 C8.492,4.67466667 5.63333333,0.678666667 5.604,0.642666667 C5.3403818,0.268799484 4.9229424,0.0329193048 4.46666667,0 C3.308,0 0,4.29066667 0,5.014 C0,5.056 0.0606666667,9.32533333 5.32533333,14.6806667 C10.6746667,19.9393333 14.944,20 14.986,20 C15.7093333,20 20,16.692 20,15.5333333 C19.9671091,15.0768853 19.7309302,14.6593503 19.3566667,14.396 Z M14.9126667,18.6626667 C14.33,18.6146667 10.7473333,18.142 6.268,13.7413333 C1.84466667,9.238 1.384,5.64533333 1.338,5.08866667 C2.21185138,3.71709518 3.26719467,2.47001399 4.47533333,1.38133333 C4.502,1.408 4.53733333,1.448 4.58266667,1.5 C5.50921696,2.76481927 6.30738484,4.1188461 6.96533333,5.542 C6.75137264,5.75724871 6.52522225,5.96002726 6.288,6.14933333 C5.92012868,6.42963418 5.58232142,6.74733386 5.28,7.09733333 L5.118,7.324 L5.166,7.598 C5.30708625,8.20915267 5.52316871,8.80052446 5.80933333,9.35866667 C6.83459167,11.4640149 8.53584364,13.1650322 10.6413333,14.19 C11.1993646,14.4765767 11.7907606,14.6928919 12.402,14.834 L12.676,14.882 L12.9026667,14.72 C13.2539919,14.4163387 13.5730176,14.0772064 13.8546667,13.708 C14.0633333,13.4586667 14.3426667,13.126 14.448,13.032 C15.875196,13.6893018 17.2326895,14.4884317 18.5,15.4173333 C18.5553333,15.464 18.594,15.5 18.62,15.5233333 C17.5314943,16.7318426 16.2843916,17.7874283 14.9126667,18.6613333 L14.9126667,18.6626667 Z" id="Shape"></path>
                    </g>
                </g>
            </g>
        </g>
    </g>
</svg>