<?xml version="1.0" encoding="UTF-8"?>
<svg width="686px" height="189px" viewBox="0 0 686 189" version="1.1" xmlns="http://www.w3.org/2000/svg" xmlns:xlink="http://www.w3.org/1999/xlink">
    <!-- Generator: Sketch 52.6 (67491) - http://www.bohemiancoding.com/sketch -->
    <title>smokepro_logo</title>
    <desc>Created with Sketch.</desc>
    <defs>
        <polygon id="path-1" points="0.0953803846 0.643888889 48.6954462 0.643888889 48.6954462 53.8267361 0.0953803846 53.8267361"></polygon>
        <polygon id="path-3" points="0 0.648770833 230.380831 0.648770833 230.380831 130.65891 0 130.65891"></polygon>
    </defs>
    <g id="Page-1" stroke="none" stroke-width="1" fill="none" fill-rule="evenodd">
        <g id="smokePro-vizitka" transform="translate(-617.000000, -279.000000)">
            <g id="smokepro_logo" transform="translate(617.000000, 278.000000)">
                <path d="M263.510805,115.466431 L255.872459,113.811847 C251.493932,112.872403 248.267094,111.574069 246.191944,109.919486 C244.115475,108.264903 243.078559,106.124764 243.078559,103.496431 L243.078559,103.448931 C243.078559,101.372125 243.661659,99.5724028 244.829178,98.047125 C245.996698,96.5231667 247.651013,95.3303889 249.792125,94.4701111 C251.931917,93.6124722 254.445052,93.1810139 257.331528,93.1810139 C260.121702,93.1810139 262.570194,93.5953194 264.678325,94.4226111 C266.786455,95.2499028 268.497498,96.4413611 269.810132,97.9983056 C271.124086,99.55525 271.926178,101.436778 272.219048,103.642889 L272.316671,104.276222 L282.969459,104.276222 L282.921967,103.496431 C282.662078,99.5394167 281.445748,96.0771944 279.272975,93.1084444 C277.100202,90.1410139 274.147763,87.8293472 270.418298,86.1747639 C266.688832,84.5201806 262.392098,83.6928889 257.526775,83.6928889 C252.565148,83.6928889 248.169471,84.5439306 244.342382,86.2473333 C240.515294,87.9507361 237.515363,90.3191389 235.34259,93.3512222 C233.168498,96.3859444 232.06694,99.8956667 232.033959,103.885667 L232.033959,103.934486 C232.033959,109.125181 233.719936,113.334208 237.094528,116.561569 C240.466482,119.788931 245.591694,122.132264 252.467525,123.592889 L260.104552,125.197333 C264.774628,126.204069 268.124155,127.541986 270.151813,129.212403 C272.178152,130.884139 273.191321,133.129833 273.191321,135.950806 L273.191321,135.999625 C273.191321,138.17275 272.567325,140.071431 271.318013,141.693028 C270.070021,143.314625 268.310167,144.564139 266.039771,145.438931 C263.769375,146.315042 261.062313,146.753097 257.915948,146.753097 C254.802563,146.753097 252.045371,146.332194 249.64569,145.48775 C247.24469,144.644625 245.308059,143.437333 243.83184,141.863236 C242.355621,140.290458 241.455905,138.432681 241.132694,136.292542 L241.033752,135.659208 L230.380963,135.659208 L230.428455,136.388861 C230.721325,140.508167 232.018128,144.053514 234.321505,147.020944 C236.623563,149.989694 239.744863,152.268375 243.686725,153.856986 C247.625948,155.445597 252.223467,156.241222 257.477963,156.241222 C263.024009,156.241222 267.799625,155.390181 271.806128,153.686778 C275.809994,151.983375 278.891717,149.567472 281.048659,146.436431 C283.205602,143.306708 284.284732,139.600389 284.284732,135.318792 L284.284732,135.269972 C284.284732,129.853653 282.638332,125.579972 279.345532,122.448931 C276.054052,119.319208 270.775809,116.991708 263.510805,115.466431" id="Fill-1" fill="#F4F4F6"></path>
                <path d="M356.917225,105.029493 C354.418602,103.619007 351.484633,102.913104 348.112679,102.913104 C345.680017,102.913104 343.417537,103.319493 341.325237,104.129632 C339.234256,104.94109 337.400525,106.100882 335.828002,107.609007 C334.25416,109.117132 333.031233,110.910257 332.155263,112.984424 L331.911206,112.984424 C331.262144,110.844285 330.25821,109.019493 328.895444,107.511368 C327.533998,106.003243 325.903429,104.859285 324.006375,104.080812 C322.109321,103.30234 319.993275,102.913104 317.658237,102.913104 C314.316625,102.913104 311.398487,103.724562 308.901183,105.34616 C306.40256,106.967757 304.603129,109.125049 303.500252,111.818035 L303.306325,111.818035 L303.306325,103.885535 L292.701029,103.885535 L292.701029,155.073382 L303.306325,155.073382 L303.306325,123.446299 C303.306325,121.208521 303.76014,119.230674 304.66909,117.510118 C305.576721,115.790882 306.832629,114.437132 308.438133,113.447549 C310.043637,112.457965 311.868133,111.963174 313.911621,111.963174 C316.895721,111.963174 319.254506,112.831368 320.990613,114.566437 C322.725402,116.301507 323.593456,118.661993 323.593456,121.646576 L323.593456,155.073382 L333.954694,155.073382 L333.954694,123.057062 C333.954694,120.916924 334.400594,119.00241 335.292394,117.31616 C336.184194,115.62991 337.416356,114.315743 338.990198,113.374979 C340.56404,112.434215 342.387217,111.963174 344.463687,111.963174 C347.608733,111.963174 350.025563,112.880187 351.71154,114.712896 C353.397517,116.545604 354.241825,119.115882 354.241825,122.425049 L354.241825,155.073382 L364.847121,155.073382 L364.847121,119.845535 C364.847121,116.440049 364.147929,113.471299 362.754821,110.940604 C361.360394,108.411229 359.414529,106.439979 356.917225,105.029493" id="Fill-3" fill="#F4F4F6"></path>
                <path d="M410.479973,129.479722 C410.479973,133.244097 409.928535,136.446389 408.825658,139.089236 C407.722781,141.734722 406.164769,143.753472 404.155581,145.148125 C402.145073,146.542778 399.777054,147.239444 397.052842,147.239444 C394.29565,147.239444 391.895969,146.542778 389.852481,145.148125 C387.808992,143.753472 386.227235,141.734722 385.109846,139.089236 C383.989819,136.446389 383.430465,133.244097 383.430465,129.479722 L383.430465,129.382083 C383.430465,125.653333 383.997735,122.473472 385.133592,119.845139 C386.268131,117.218125 387.849888,115.207292 389.877546,113.811319 C391.903885,112.417986 394.262669,111.72 396.955219,111.72 C399.679431,111.72 402.063281,112.40875 404.106769,113.787569 C406.150258,115.166389 407.722781,117.178542 408.825658,119.821389 C409.928535,122.465556 410.479973,125.653333 410.479973,129.382083 L410.479973,129.479722 Z M409.726692,106.100486 C406.076381,103.976181 401.820542,102.912708 396.955219,102.912708 C392.122877,102.912708 387.88155,103.982778 384.232558,106.124236 C380.584885,108.265694 377.747219,111.314931 375.719562,115.271944 C373.691904,119.230278 372.680054,123.932778 372.680054,129.382083 L372.680054,129.479722 C372.680054,134.962014 373.683988,139.690903 375.695815,143.66375 C377.706323,147.637917 380.536073,150.702986 384.183746,152.860278 C387.834058,155.017569 392.105727,156.095556 397.004031,156.095556 C401.869354,156.095556 406.117277,155.017569 409.749119,152.860278 C413.382281,150.702986 416.212031,147.645833 418.239688,143.6875 C420.266027,139.730486 421.280515,134.995 421.280515,129.479722 L421.280515,129.382083 C421.280515,123.901111 420.266027,119.181458 418.239688,115.223125 C416.212031,111.266111 413.374365,108.224792 409.726692,106.100486 Z" id="Fill-5" fill="#F4F4F6"></path>
                <polygon id="Fill-7" fill="#F4F4F6" points="473.675612 103.885931 461.270885 103.885931 440.788508 125.684472 440.54577 125.684472 440.54577 84.8608611 429.989285 84.8608611 429.989285 155.073778 440.54577 155.073778 440.54577 136.631903 444.882082 132.294889 462.243158 155.073778 474.453958 155.073778 452.649712 125.981347"></polygon>
                <path d="M487.200234,118.799875 C488.334773,116.415639 489.891465,114.608 491.870311,113.374319 C493.847838,112.141958 496.085253,111.525778 498.583877,111.525778 C501.114161,111.525778 503.342342,112.108972 505.272377,113.276681 C507.202411,114.444389 508.711611,116.220361 509.797338,118.605917 C510.579642,120.321194 511.069077,122.365014 511.288069,124.710986 L485.654096,124.710986 C485.888919,122.471889 486.394184,120.491403 487.200234,118.799875 M510.917365,106.100222 C507.4623,103.975917 503.334427,102.912444 498.535065,102.912444 C493.768684,102.912444 489.615746,104.024736 486.080207,106.245361 C482.545988,108.468625 479.805946,111.582514 477.858761,115.588347 C475.912896,119.5955 474.940623,124.257097 474.940623,129.577097 L474.940623,129.625917 C474.940623,135.010569 475.903661,139.690639 477.835015,143.663486 C479.76373,147.637653 482.538073,150.702722 486.154084,152.860014 C489.770096,155.017306 494.076065,156.095292 499.070673,156.095292 C502.184057,156.095292 505.005892,155.673069 507.534857,154.829944 C510.065142,153.986819 512.261661,152.828347 514.127053,151.350569 C515.992446,149.875431 517.509561,148.212931 518.675761,146.364389 C519.84328,144.514528 520.638777,142.5855 521.059611,140.573347 L521.157234,140.038972 L511.136357,140.038972 L510.988603,140.428208 C510.567769,141.725222 509.829,142.902167 508.774934,143.955083 C507.722188,145.009319 506.400319,145.852444 504.811965,146.485778 C503.222292,147.117792 501.388561,147.434458 499.31473,147.434458 C496.491577,147.434458 494.043084,146.810361 491.966615,145.560847 C489.891465,144.312653 488.293877,142.512931 487.175169,140.160361 C486.113188,137.929181 485.572303,135.249389 485.519534,132.156611 L521.741653,132.156611 L521.741653,128.604667 C521.741653,123.478625 520.799723,118.978 518.919819,115.101472 C517.037277,111.226264 514.371111,108.224528 510.917365,106.100222" id="Fill-9" fill="#F4F4F6"></path>
                <path d="M589.557898,108.071076 C589.557898,112.417326 588.25186,115.816215 585.641102,118.265104 C583.030345,120.713993 579.373437,121.938437 574.671698,121.938437 L562.119218,121.938437 L562.119218,94.0572569 L574.671698,94.0572569 C579.373437,94.0572569 583.030345,95.2737847 585.641102,97.7068403 C588.25186,100.139896 589.557898,103.562535 589.557898,107.973437 L589.557898,108.071076 Z M589.532833,87.7569097 C586.047425,85.8265625 582.000025,84.8607292 577.394591,84.8607292 L562.119218,84.8607292 L556.670795,84.8607292 L551.221052,84.8607292 L551.221052,155.073646 L562.119218,155.073646 L562.119218,131.086146 L577.394591,131.086146 C582.000025,131.086146 586.047425,130.120312 589.532833,128.191285 C593.01956,126.260937 595.751687,123.552118 597.730533,120.064826 C599.70806,116.577535 600.697483,112.547951 600.697483,107.973437 L600.697483,107.875799 C600.697483,103.302604 599.70806,99.2875347 597.730533,95.8332292 C595.751687,92.3789236 593.01956,89.6859375 589.532833,87.7569097 Z" id="Fill-11" fill="#F4F4F6"></path>
                <path d="M631.542682,102.913104 C628.52692,102.913104 625.939908,103.757549 623.782966,105.442479 C621.626024,107.130049 620.141889,109.432479 619.331882,112.35241 L619.137955,112.35241 L619.137955,103.885535 L608.921832,103.885535 L608.921832,155.073382 L619.527128,155.073382 L619.527128,124.27359 C619.527128,121.840535 619.965112,119.747896 620.841082,117.996993 C621.715732,116.244771 622.980874,114.891021 624.635189,113.934424 C626.289505,112.977826 628.234051,112.498868 630.471466,112.498868 C631.51102,112.498868 632.450312,112.555604 633.29462,112.669076 C634.137608,112.782549 634.76952,112.919771 635.191674,113.083382 L635.191674,103.30234 C634.802501,103.204701 634.291958,103.116299 633.658728,103.034493 C633.026816,102.954007 632.321028,102.913104 631.542682,102.913104" id="Fill-13" fill="#F4F4F6"></path>
                <g id="Group-17" transform="translate(637.188462, 102.268819)">
                    <mask id="mask-2" fill="white">
                        <use xlink:href="#path-1"></use>
                    </mask>
                    <g id="Clip-16"></g>
                    <path d="M37.8952996,27.2109028 C37.8952996,30.9752778 37.3438612,34.1775694 36.2409842,36.8204167 C35.1381073,39.4659028 33.5800958,41.4846528 31.5709073,42.8793056 C29.5603996,44.2739583 27.1923804,44.970625 24.4681688,44.970625 C21.7109765,44.970625 19.3112958,44.2739583 17.2678073,42.8793056 C15.2243188,41.4846528 13.6425612,39.4659028 12.5251727,36.8204167 C11.4051458,34.1775694 10.8457919,30.9752778 10.8457919,27.2109028 L10.8457919,27.1132639 C10.8457919,23.3845139 11.4130612,20.2046528 12.5489188,17.5763194 C13.6834573,14.9493056 15.265215,12.9384722 17.2928727,11.5425 C19.3192112,10.1491667 21.6779958,9.45118056 24.3705458,9.45118056 C27.0947573,9.45118056 29.4786073,10.1399306 31.5220958,11.51875 C33.5655842,12.8975694 35.1381073,14.9097222 36.2409842,17.5525694 C37.3438612,20.1967361 37.8952996,23.3845139 37.8952996,27.1132639 L37.8952996,27.2109028 Z M45.655015,12.9543056 C43.6273573,8.99729167 40.7896919,5.95597222 37.1420188,3.83166667 C33.4917073,1.70736111 29.2358688,0.643888889 24.3705458,0.643888889 C19.5382035,0.643888889 15.2968765,1.71395833 11.6478842,3.85541667 C8.00021115,5.996875 5.16254577,9.04611111 3.13488808,13.003125 C1.10723038,16.9614583 0.0953803846,21.6639583 0.0953803846,27.1132639 L0.0953803846,27.2109028 C0.0953803846,32.6931944 1.099315,37.4220833 3.11114192,41.3949306 C5.12164962,45.3690972 7.95139962,48.4341667 11.5990727,50.5914583 C15.2493842,52.74875 19.5210535,53.8267361 24.4193573,53.8267361 C29.2846804,53.8267361 33.5326035,52.74875 37.1644458,50.5914583 C40.7976073,48.4341667 43.6273573,45.3770139 45.655015,41.4186806 C47.6813535,37.4616667 48.6958419,32.7261806 48.6958419,27.2109028 L48.6958419,27.1132639 C48.6958419,21.6322917 47.6813535,16.9126389 45.655015,12.9543056 Z" id="Fill-15" fill="#F4F4F6" mask="url(#mask-2)"></path>
                </g>
                <path d="M482.701393,175.199 C482.701393,176.393097 482.520659,177.428861 482.161828,178.304972 C481.800359,179.182403 481.287178,179.852681 480.620967,180.314486 C479.953436,180.777611 479.161897,181.008514 478.24767,181.008514 C477.376978,181.008514 476.60259,180.769694 475.924505,180.290736 C475.24774,179.811778 474.717409,179.136222 474.334832,178.265389 C473.953574,177.394556 473.763605,176.371986 473.763605,175.199 L473.763605,175.183167 C473.763605,174.010181 473.956213,172.991569 474.344067,172.124694 C474.730601,171.259139 475.259613,170.586222 475.93242,170.107264 C476.605228,169.628306 477.376978,169.389486 478.24767,169.389486 C479.161897,169.389486 479.953436,169.623028 480.620967,170.091431 C481.287178,170.558514 481.800359,171.226153 482.161828,172.093028 C482.520659,172.958583 482.701393,173.989069 482.701393,175.183167 L482.701393,175.199 Z M482.928301,167.460458 C481.872917,166.745319 480.636797,166.38775 479.215986,166.38775 C478.011528,166.38775 476.94427,166.67275 476.014213,167.24275 C475.084155,167.81275 474.365174,168.599139 473.859909,169.599278 L473.778117,169.599278 L473.778117,160.400111 L470.276878,160.400111 L470.276878,183.688306 L473.778117,183.688306 L473.778117,180.814556 L473.859909,180.814556 C474.365174,181.805458 475.072282,182.587889 475.981232,183.163167 C476.890182,183.738444 477.95744,184.026083 479.184324,184.026083 C480.61437,184.026083 481.862363,183.665875 482.928301,182.945458 C483.99292,182.225042 484.81744,181.205111 485.404497,179.886986 C485.990236,178.568861 486.284424,177.006639 486.284424,175.199 L486.284424,175.183167 C486.284424,173.375528 485.987597,171.815944 485.396582,170.503097 C484.805567,169.19025 483.982367,168.176917 482.928301,167.460458 Z" id="Fill-18" fill="#F4F4F6"></path>
                <path d="M495.055066,180.524542 L494.956124,180.524542 L490.688412,166.709958 L486.895624,166.709958 L493.07622,183.704403 L492.785989,184.510583 C492.506312,185.328639 492.121097,185.877528 491.631662,186.15725 C491.142228,186.436972 490.483932,186.576833 489.655455,186.576833 C489.419312,186.576833 489.201639,186.563639 489.002435,186.535931 C488.803232,186.509542 488.639647,186.485792 488.510362,186.463361 L488.510362,189.190653 C488.725397,189.234194 488.999797,189.271139 489.333562,189.304125 C489.666008,189.335792 489.999774,189.351625 490.333539,189.351625 C491.452247,189.351625 492.40737,189.190653 493.197589,188.868708 C493.987808,188.545444 494.665893,188.024264 495.230524,187.302528 C495.796474,186.582111 496.288547,185.63475 496.706743,184.461764 L503.032455,166.709958 L499.337289,166.709958 L495.055066,180.524542 Z" id="Fill-20" fill="#F4F4F6"></path>
                <path d="M528.203378,176.312347 C527.923701,177.291375 527.498908,178.119986 526.929001,178.798181 C526.359093,179.475056 525.667816,179.989639 524.85517,180.339292 C524.043843,180.688944 523.120382,180.863111 522.087424,180.863111 C520.657378,180.863111 519.409385,180.502903 518.344766,179.782486 C517.280147,179.06075 516.456947,178.036861 515.875166,176.708181 C515.296024,175.3795 515.004474,173.822556 515.004474,172.036028 L515.004474,172.020194 C515.004474,170.223111 515.296024,168.668806 515.875166,167.355958 C516.456947,166.043111 517.277508,165.027139 518.336851,164.305403 C519.396193,163.584986 520.645505,163.224778 522.087424,163.224778 C523.142808,163.224778 524.075505,163.398944 524.886832,163.749917 C525.700797,164.099569 526.382839,164.602278 526.936916,165.258042 C527.490993,165.915125 527.892039,166.700194 528.138735,167.614569 L528.235039,167.936514 L531.833901,167.936514 L531.81807,167.775542 C531.581928,166.237069 531.017297,164.887278 530.124178,163.724847 C529.231058,162.563736 528.09652,161.654639 526.719243,160.997556 C525.341966,160.341792 523.798466,160.01325 522.087424,160.01325 C519.882989,160.01325 517.974062,160.500125 516.359324,161.473875 C514.747224,162.447625 513.499232,163.833042 512.617985,165.628806 C511.73542,167.425889 511.293478,169.555472 511.293478,172.020194 L511.293478,172.036028 C511.293478,174.499431 511.73542,176.632972 512.617985,178.434014 C513.499232,180.237694 514.749862,181.627069 516.367239,182.607417 C517.987255,183.585125 519.893543,184.074639 522.087424,184.074639 C523.80902,184.074639 525.359116,183.752694 526.736393,183.106167 C528.112351,182.460958 529.244251,181.555819 530.132093,180.386792 C531.019935,179.220403 531.581928,177.861375 531.81807,176.312347 L531.851051,176.151375 L528.252189,176.151375 L528.203378,176.312347 Z" id="Fill-22" fill="#F4F4F6"></path>
                <path d="M544.356171,179.306167 C543.98019,179.893319 543.46569,180.352486 542.81531,180.686306 C542.164929,181.020125 541.430117,181.186375 540.612194,181.186375 C539.67686,181.186375 538.926217,180.971306 538.361587,180.541167 C537.796956,180.111028 537.513321,179.523875 537.513321,178.782347 L537.513321,178.749361 C537.513321,178.028944 537.796956,177.449708 538.361587,177.014292 C538.926217,176.578875 539.729629,176.3295 540.77314,176.263528 L544.920802,176.006236 L544.920802,177.329639 C544.920802,178.060611 544.732152,178.720333 544.356171,179.306167 M545.244013,167.081514 C544.232163,166.619708 543.032983,166.387486 541.645152,166.387486 C540.25864,166.387486 539.05814,166.613111 538.04761,167.065681 C537.03576,167.516931 536.24554,168.133111 535.675633,168.912903 C535.104406,169.692694 534.775917,170.572764 534.691487,171.551792 L534.674337,171.729917 L537.965817,171.729917 L537.998798,171.583458 C538.14919,170.906583 538.52781,170.352417 539.135975,169.922278 C539.74414,169.492139 540.547552,169.27575 541.548848,169.27575 C542.634575,169.27575 543.468329,169.542278 544.05011,170.075333 C544.630571,170.608389 544.920802,171.342 544.920802,172.277486 L544.920802,173.549431 L540.306133,173.827833 C538.30486,173.946583 536.753444,174.438736 535.650567,175.304292 C534.54769,176.169847 533.996252,177.345472 533.996252,178.829847 L533.996252,178.862833 C533.996252,179.873528 534.233713,180.766792 534.707317,181.541306 C535.180921,182.315819 535.841856,182.918806 536.69144,183.348944 C537.541025,183.779083 538.531767,183.994153 539.65971,183.994153 C540.41431,183.994153 541.121417,183.872764 541.782352,183.631306 C542.444606,183.389847 543.03826,183.044153 543.564633,182.598181 C544.092325,182.152208 544.522394,181.621792 544.85616,181.009569 L544.920802,181.009569 L544.920802,183.688042 L548.43919,183.688042 L548.43919,171.987208 C548.43919,170.857764 548.158194,169.873458 547.59884,169.034292 C547.039487,168.195125 546.254544,167.544639 545.244013,167.081514" id="Fill-24" fill="#F4F4F6"></path>
                <path d="M560.58891,166.387486 C559.307937,166.387486 558.232764,166.654014 557.362072,167.18575 C556.49006,167.718806 555.829125,168.415472 555.376629,169.27575 L555.311987,169.27575 L555.311987,166.71075 L551.794918,166.71075 L551.794918,183.688042 L555.311987,183.688042 L555.311987,173.794847 C555.311987,172.901583 555.475572,172.128389 555.80406,171.471306 C556.132548,170.814222 556.600875,170.303597 557.207722,169.938111 C557.814568,169.572625 558.528272,169.389222 559.346195,169.389222 C560.550652,169.389222 561.451687,169.733597 562.047979,170.422347 C562.645591,171.111097 562.943737,172.095403 562.943737,173.375264 L562.943737,183.688042 L566.444975,183.688042 L566.444975,172.697069 C566.444975,170.739014 565.934433,169.197903 564.912029,168.073736 C563.890945,166.949569 562.449025,166.387486 560.58891,166.387486" id="Fill-26" fill="#F4F4F6"></path>
                <path d="M579.499951,179.306167 C579.12397,179.893319 578.60947,180.352486 577.95909,180.686306 C577.308709,181.020125 576.573897,181.186375 575.755974,181.186375 C574.82064,181.186375 574.069997,180.971306 573.505367,180.541167 C572.940736,180.111028 572.657101,179.523875 572.657101,178.782347 L572.657101,178.749361 C572.657101,178.028944 572.940736,177.449708 573.505367,177.014292 C574.069997,176.578875 574.873409,176.3295 575.91692,176.263528 L580.064582,176.006236 L580.064582,177.329639 C580.064582,178.060611 579.875932,178.720333 579.499951,179.306167 M580.387793,167.081514 C579.375943,166.619708 578.176763,166.387486 576.788932,166.387486 C575.40242,166.387486 574.20192,166.613111 573.19139,167.065681 C572.17954,167.516931 571.38932,168.133111 570.819413,168.912903 C570.248186,169.692694 569.919697,170.572764 569.835267,171.551792 L569.818117,171.729917 L573.109597,171.729917 L573.142578,171.583458 C573.29297,170.906583 573.67159,170.352417 574.279755,169.922278 C574.88792,169.492139 575.691332,169.27575 576.692628,169.27575 C577.778355,169.27575 578.612109,169.542278 579.19389,170.075333 C579.774351,170.608389 580.064582,171.342 580.064582,172.277486 L580.064582,173.549431 L575.449913,173.827833 C573.44864,173.946583 571.897224,174.438736 570.794347,175.304292 C569.69147,176.169847 569.140032,177.345472 569.140032,178.829847 L569.140032,178.862833 C569.140032,179.873528 569.377493,180.766792 569.851097,181.541306 C570.324701,182.315819 570.985636,182.918806 571.83522,183.348944 C572.684805,183.779083 573.675547,183.994153 574.80349,183.994153 C575.55809,183.994153 576.265197,183.872764 576.926132,183.631306 C577.588386,183.389847 578.18204,183.044153 578.708413,182.598181 C579.236105,182.152208 579.666174,181.621792 579.99994,181.009569 L580.064582,181.009569 L580.064582,183.688042 L583.58297,183.688042 L583.58297,171.987208 C583.58297,170.857764 583.301974,169.873458 582.74262,169.034292 C582.183267,168.195125 581.398324,167.544639 580.387793,167.081514" id="Fill-28" fill="#F4F4F6"></path>
                <path d="M594.441823,166.387486 C593.440527,166.387486 592.583027,166.667208 591.868003,167.226653 C591.151661,167.786097 590.659588,168.550056 590.391784,169.518528 L590.327142,169.518528 L590.327142,166.71075 L586.939357,166.71075 L586.939357,183.688042 L590.456427,183.688042 L590.456427,173.472903 C590.456427,172.665403 590.601542,171.971375 590.891773,171.390819 C591.182003,170.810264 591.601519,170.360333 592.150319,170.043667 C592.699119,169.725681 593.344223,169.567347 594.08563,169.567347 C594.42995,169.567347 594.742607,169.585819 595.020965,169.624083 C595.300642,169.661028 595.511719,169.707208 595.651557,169.761306 L595.651557,166.516792 C595.522273,166.485125 595.352092,166.454778 595.142334,166.428389 C594.933896,166.400681 594.699073,166.387486 594.441823,166.387486" id="Fill-30" fill="#F4F4F6"></path>
                <path d="M604.535785,180.524542 L604.436843,180.524542 L600.169131,166.709958 L596.376343,166.709958 L602.556939,183.704403 L602.266708,184.510583 C601.987031,185.328639 601.601816,185.877528 601.112381,186.15725 C600.622947,186.436972 599.96465,186.576833 599.136173,186.576833 C598.900031,186.576833 598.682358,186.563639 598.483154,186.535931 C598.28395,186.509542 598.120366,186.485792 597.991081,186.463361 L597.991081,189.190653 C598.206116,189.234194 598.480516,189.271139 598.814281,189.304125 C599.146727,189.335792 599.480493,189.351625 599.814258,189.351625 C600.932966,189.351625 601.888089,189.190653 602.678308,188.868708 C603.468527,188.545444 604.146612,188.024264 604.711243,187.302528 C605.277193,186.582111 605.769266,185.63475 606.187462,184.461764 L612.513173,166.709958 L608.818008,166.709958 L604.535785,180.524542 Z" id="Fill-32" fill="#F4F4F6"></path>
                <path d="M619.080832,162.288764 L615.497801,162.288764 L615.497801,166.710222 L613.062501,166.710222 L613.062501,169.486333 L615.497801,169.486333 L615.497801,179.201403 C615.497801,180.900847 615.91072,182.130569 616.732601,182.88925 C617.555801,183.646611 618.806432,184.026611 620.483174,184.026611 C620.839367,184.026611 621.171813,184.010778 621.48447,183.977792 C621.797128,183.946125 622.054378,183.914458 622.258859,183.881472 L622.258859,181.185847 C622.130893,181.197722 621.987097,181.210917 621.831428,181.22675 C621.675759,181.242583 621.505578,181.251819 621.323524,181.251819 C620.580797,181.251819 620.021443,181.092167 619.645463,180.7755 C619.269482,180.457514 619.080832,179.869042 619.080832,179.007444 L619.080832,169.486333 L622.258859,169.486333 L622.258859,166.710222 L619.080832,166.710222 L619.080832,162.288764 Z" id="Fill-34" fill="#F4F4F6"></path>
                <path d="M632.618382,166.387486 C631.617086,166.387486 630.759586,166.667208 630.044563,167.226653 C629.328221,167.786097 628.836148,168.550056 628.568344,169.518528 L628.503702,169.518528 L628.503702,166.71075 L625.115917,166.71075 L625.115917,183.688042 L628.632986,183.688042 L628.632986,173.472903 C628.632986,172.665403 628.778102,171.971375 629.068332,171.390819 C629.358563,170.810264 629.778078,170.360333 630.326878,170.043667 C630.875678,169.725681 631.520782,169.567347 632.26219,169.567347 C632.606509,169.567347 632.919167,169.585819 633.197525,169.624083 C633.477202,169.661028 633.688278,169.707208 633.828117,169.761306 L633.828117,166.516792 C633.698832,166.485125 633.528652,166.454778 633.318894,166.428389 C633.110455,166.400681 632.875632,166.387486 632.618382,166.387486" id="Fill-36" fill="#F4F4F6"></path>
                <path d="M645.315978,179.306167 C644.939998,179.893319 644.425498,180.352486 643.775117,180.686306 C643.124736,181.020125 642.389925,181.186375 641.572002,181.186375 C640.636667,181.186375 639.886025,180.971306 639.321394,180.541167 C638.756763,180.111028 638.473128,179.523875 638.473128,178.782347 L638.473128,178.749361 C638.473128,178.028944 638.756763,177.449708 639.321394,177.014292 C639.886025,176.578875 640.689436,176.3295 641.732948,176.263528 L645.880609,176.006236 L645.880609,177.329639 C645.880609,178.060611 645.691959,178.720333 645.315978,179.306167 M646.203821,167.081514 C645.191971,166.619708 643.99279,166.387486 642.604959,166.387486 C641.218448,166.387486 640.017948,166.613111 639.007417,167.065681 C637.995567,167.516931 637.205348,168.133111 636.63544,168.912903 C636.064213,169.692694 635.735725,170.572764 635.651294,171.551792 L635.634144,171.729917 L638.925625,171.729917 L638.958605,171.583458 C639.108998,170.906583 639.487617,170.352417 640.095782,169.922278 C640.703948,169.492139 641.507359,169.27575 642.508655,169.27575 C643.594382,169.27575 644.428136,169.542278 645.009917,170.075333 C645.590378,170.608389 645.880609,171.342 645.880609,172.277486 L645.880609,173.549431 L641.26594,173.827833 C639.264667,173.946583 637.713252,174.438736 636.610375,175.304292 C635.507498,176.169847 634.956059,177.345472 634.956059,178.829847 L634.956059,178.862833 C634.956059,179.873528 635.193521,180.766792 635.667125,181.541306 C636.140728,182.315819 636.801663,182.918806 637.651248,183.348944 C638.500832,183.779083 639.491575,183.994153 640.619517,183.994153 C641.374117,183.994153 642.081225,183.872764 642.742159,183.631306 C643.404413,183.389847 643.998067,183.044153 644.52444,182.598181 C645.052132,182.152208 645.482202,181.621792 645.815967,181.009569 L645.880609,181.009569 L645.880609,183.688042 L649.398998,183.688042 L649.398998,171.987208 C649.398998,170.857764 649.118002,169.873458 648.558648,169.034292 C647.999294,168.195125 647.214352,167.544639 646.203821,167.081514" id="Fill-38" fill="#F4F4F6"></path>
                <path d="M664.001695,178.023535 C663.78666,178.93791 663.348676,179.676799 662.687741,180.24284 C662.025487,180.807563 661.157433,181.089924 660.080941,181.089924 C659.177268,181.089924 658.389687,180.857701 657.71688,180.395896 C657.045391,179.932771 656.520337,179.263813 656.144357,178.386382 C655.767057,177.508951 655.578407,176.453396 655.578407,175.215757 L655.578407,175.198604 C655.578407,173.993951 655.764418,172.950271 656.136441,172.068882 C656.507145,171.186174 657.028241,170.50534 657.701049,170.026382 C658.372537,169.548743 659.15616,169.308604 660.04928,169.308604 C661.189095,169.308604 662.084853,169.612076 662.735233,170.22034 C663.385614,170.828604 663.80381,171.546382 663.985864,172.374993 L664.018845,172.520132 L667.357818,172.520132 L667.341987,172.390826 C667.245683,171.326035 666.894768,170.336451 666.293199,169.420757 C665.69031,168.507701 664.859195,167.772771 663.801172,167.218604 C662.74051,166.664437 661.484603,166.387354 660.03213,166.387354 C658.42003,166.387354 657.009772,166.746243 655.805314,167.461382 C654.600857,168.176521 653.666841,169.191174 653.005907,170.502701 C652.343653,171.815549 652.012526,173.369854 652.012526,175.166937 L652.012526,175.182771 C652.012526,176.99041 652.338376,178.555271 652.988757,179.878674 C653.640457,181.202076 654.571833,182.224646 655.781568,182.945063 C656.991303,183.666799 658.42003,184.027007 660.06511,184.027007 C661.431833,184.027007 662.63893,183.760479 663.687718,183.227424 C664.736507,182.695688 665.580814,181.975271 666.220641,181.064854 C666.860468,180.157076 667.245683,179.137146 667.374968,178.007701 L667.374968,177.894229 L664.018845,177.894229 L664.001695,178.023535 Z" id="Fill-40" fill="#F4F4F6"></path>
                <path d="M673.166655,171.656951 C673.542636,170.865285 674.059774,170.266257 674.715432,169.857229 C675.37109,169.448201 676.112497,169.243687 676.940974,169.243687 C677.781324,169.243687 678.521413,169.437646 679.16124,169.825562 C679.799747,170.21216 680.301055,170.801951 680.661205,171.592299 C680.921093,172.160979 681.083359,172.839174 681.155917,173.617646 L672.686455,173.617646 C672.76429,172.886674 672.902809,172.211118 673.166655,171.656951 Z M684.622855,174.908062 C684.622855,173.208618 684.310197,171.716326 683.68752,170.429868 C683.062205,169.144729 682.17832,168.149868 681.031909,167.445285 C679.886817,166.739382 678.518774,166.38709 676.926463,166.38709 C675.344705,166.38709 673.967428,166.756535 672.795951,167.492785 C671.621836,168.230354 670.714205,169.263479 670.067782,170.59216 C669.422678,171.92084 669.099467,173.467229 669.099467,175.231326 L669.099467,175.24716 C669.099467,177.033687 669.42004,178.585354 670.061186,179.903479 C670.699693,181.221604 671.619197,182.238896 672.818378,182.954035 C674.018878,183.669174 675.447605,184.026743 677.10324,184.026743 C678.136197,184.026743 679.072851,183.886882 679.910563,183.60716 C680.749593,183.327437 681.479128,182.943479 682.097847,182.453965 C682.715247,181.964451 683.219193,181.412924 683.605728,180.799382 C683.993582,180.18584 684.256109,179.54591 684.397267,178.878271 L684.428928,178.701465 L681.105786,178.701465 L681.055655,178.830771 C680.917136,179.26091 680.671759,179.651465 680.322163,179.999799 C679.972567,180.349451 679.534582,180.629174 679.008209,180.838965 C678.479197,181.048757 677.872351,181.154312 677.183713,181.154312 C676.248378,181.154312 675.435732,180.94716 674.747093,180.532854 C674.059774,180.118549 673.528124,179.52084 673.15742,178.741049 C672.806505,178.003479 672.635005,177.110215 672.615217,176.086326 L684.622855,176.086326 L684.622855,174.908062 Z" id="Fill-42" fill="#F4F4F6"></path>
                <g id="Group-46" transform="translate(0.000000, 0.671597)">
                    <mask id="mask-4" fill="white">
                        <use xlink:href="#path-3"></use>
                    </mask>
                    <g id="Clip-45"></g>
                    <path d="M120.847739,123.524674 C130.945131,111.149604 141.95807,99.4989097 153.668881,88.7190486 L138.499047,64.9136319 C123.206523,65.9005764 107.29792,65.9005764 91.8800696,64.9136319 L76.7115542,88.7190486 C88.4170888,99.5978681 99.3403196,111.261757 109.479927,123.561618 C111.4126,125.904951 113.31625,128.270715 115.189558,130.65891 C117.041758,128.254882 118.928258,125.877243 120.847739,123.524674 Z M142.253577,87.2927292 L133.819735,74.0573819 C121.523185,74.6696042 108.928489,74.6682847 96.5620196,74.0560625 L88.1097081,87.3204375 C97.6569812,96.5697431 106.668647,106.327035 115.143385,116.507868 C123.611527,106.24259 132.687835,96.4787014 142.253577,87.2927292 Z M205.00015,21.0447431 C204.852397,21.8720347 204.696727,22.6966875 204.531823,23.5200208 L203.447416,28.9191875 L198.126958,30.3389097 C180.66562,34.9939097 163.022227,38.2568958 144.847185,39.9959236 L163.15415,68.6661319 C171.33602,61.9211319 179.826589,55.5402986 188.4847,49.5922431 C197.3684,43.4845347 206.481647,37.7660625 215.915466,32.4962014 C215.328408,31.8787014 214.729477,31.2493264 214.12527,30.6133542 L214.100204,30.5882847 L214.096247,30.5843264 L214.085693,30.5750903 L214.083054,30.5724514 L214.076458,30.5658542 L214.064585,30.5513403 L214.061947,30.5500208 C211.631923,28.0021736 209.088447,25.3302986 206.56212,22.6848125 L205.00015,21.0447431 Z M197.224604,12.8971736 C196.894797,15.8804375 196.433066,18.8425903 195.84337,21.7743958 C177.383373,26.6985625 158.745281,30.0143264 139.47,31.5739097 C136.124431,31.8443958 132.759073,32.0621042 129.372608,32.2257153 L161.192454,82.0584931 C162.179239,81.3196042 163.042016,80.5793958 163.904793,79.7151597 C164.172597,79.4552292 164.437762,79.1913403 164.704247,78.9287708 C165.783377,78.0104375 166.867785,77.0973819 167.960108,76.1922431 C176.192108,69.3614792 184.757873,62.9027986 193.505693,56.8953681 C202.814185,50.4947431 212.352223,44.5506458 222.238539,39.1250903 C224.927131,37.6499514 227.63947,36.2130764 230.380831,34.8157847 C228.570847,32.9263403 226.391477,30.6410625 224.001031,28.1341181 C222.881004,26.9571736 221.713485,25.7327292 220.516943,24.4779375 L220.50375,24.4647431 L220.498473,24.4581458 L220.476047,24.4343958 C220.235947,24.1823819 219.995847,23.9303681 219.753108,23.6770347 C217.55395,21.3693264 215.271681,18.9732153 213.002604,16.5955764 C212.99337,16.5876597 212.986773,16.5797431 212.978858,16.5718264 C212.977539,16.5691875 212.97622,16.5678681 212.973581,16.5665486 L212.990731,16.5599514 L197.946223,0.650090278 L197.944904,0.648770833 L197.944904,0.898145833 L197.820897,0.771479167 C197.822216,0.813701389 197.822216,0.855923611 197.822216,0.898145833 C197.822216,0.936409722 197.824854,0.975993056 197.824854,1.01425694 C197.860473,4.81953472 197.6771,8.60634028 197.281331,12.3601597 C197.268139,12.5052986 197.252308,12.6504375 197.235158,12.7968958 C197.23252,12.8246042 197.228562,12.8536319 197.227243,12.8813403 C197.224604,12.8866181 197.224604,12.8918958 197.224604,12.8971736 Z M25.2734273,21.0711319 C24.4000965,21.9881458 23.5214888,22.9130764 22.6428812,23.8353681 L22.636285,23.8419653 C19.8289619,26.7922431 17.0269158,29.7372431 14.4253927,32.4750903 C23.8658081,37.7502292 32.9711388,43.4779375 41.7875581,49.6041181 C50.4694158,55.5680069 58.9824119,61.9673125 67.1827504,68.7334236 L85.5292927,40.0012014 C67.2355196,38.2595347 49.5512312,34.9846736 32.120235,30.3019653 L26.8116504,28.8769653 L25.7298812,23.4857153 C25.568935,22.6834931 25.4172235,21.8773125 25.2734273,21.0711319 Z M23.8855965,9.67113194 C21.435785,12.2493264 18.8263465,14.9911319 16.2182273,17.7316181 C12.8080158,21.3152292 9.39912346,24.8975208 6.34510423,28.1156458 C3.95729654,30.6305069 1.78584269,32.9223819 -0.000395769231,34.8157847 C2.73700808,36.2104375 5.44538885,37.6446736 8.12606577,39.1171736 C18.0137004,44.5453681 27.5359081,50.4907847 36.7520542,56.8953681 C45.5275773,62.9225903 54.1210465,69.4037014 62.3781119,76.2595347 C63.7527504,77.4008542 65.1194735,78.5540486 66.4743235,79.7151597 C67.3384196,80.5793958 68.2011965,81.3196042 69.1879812,82.0598125 L101.006508,32.2257153 C97.6174042,32.0634236 94.2520465,31.8470347 90.9077965,31.5765486 C71.5032312,30.0156458 52.8255619,26.6866875 34.418335,21.7427292 C34.1769158,20.5420347 33.9579235,19.3347431 33.7587196,18.1248125 C33.4816812,16.3910625 33.2508158,14.6414792 33.0621658,12.8760625 C32.8972619,11.3270347 32.7653388,9.7648125 32.6677158,8.18939583 C32.6677158,8.18675694 32.6663965,8.18411806 32.6663965,8.18147917 C32.5133658,5.72863194 32.4368504,3.2454375 32.4355312,0.733215278 L32.4355312,0.648770833 L32.3933158,0.693631944 L28.7839004,4.50946528 C27.2681042,6.10995139 25.6164273,7.85029861 23.8855965,9.67113194 Z" id="Fill-44" fill="#FFCF05" mask="url(#mask-4)"></path>
                </g>
            </g>
        </g>
    </g>
</svg>