<?xml version="1.0" encoding="UTF-8"?>
<svg width="26px" height="26px" viewBox="0 0 26 26" version="1.1" xmlns="http://www.w3.org/2000/svg" xmlns:xlink="http://www.w3.org/1999/xlink">
    <!-- Generator: Sketch 52.6 (67491) - http://www.bohemiancoding.com/sketch -->
    <title>time</title>
    <desc>Created with Sketch.</desc>
    <g id="Page-1" stroke="none" stroke-width="1" fill="none" fill-rule="evenodd">
        <g id="smokePro-vizitka" transform="translate(-870.000000, -648.000000)" fill="#FFD000">
            <g id="btn" transform="translate(832.000000, 632.000000)">
                <g id="time" transform="translate(38.000000, 16.000000)">
                    <path d="M23.1958012,4.96691228 L23.9981014,4.96691228 C24.2779688,4.96691228 24.504924,4.73995712 24.504924,4.46008967 C24.504924,4.18022222 24.2779688,3.95326706 23.9981014,3.95326706 L22.0721754,3.95326706 C21.792308,3.95326706 21.5653528,4.18022222 21.5653528,4.46008967 L21.5653528,6.38601559 C21.5653528,6.66588304 21.792308,6.89283821 22.0721754,6.89283821 C22.3520429,6.89283821 22.5789981,6.66588304 22.5789981,6.38601559 L22.5789981,5.82835867 C24.1167992,7.88712281 24.9527018,10.3850994 24.9527018,12.9831735 C24.9527018,19.5832203 19.5832203,24.9527018 12.9831735,24.9527018 C6.38312671,24.9527018 1.01364522,19.5832203 1.01364522,12.9831735 C1.01364522,6.38312671 6.38312671,1.01364522 12.9831735,1.01364522 C13.4712943,1.01364522 13.9625575,1.04329435 14.4434308,1.10173099 C14.7209162,1.13528265 14.9739727,0.937672515 15.0077271,0.659781676 C15.0415322,0.38194152 14.8436686,0.129239766 14.5657778,0.0954853801 C14.04446,0.0321325536 13.5120429,0 12.9831735,0 C9.51523977,0 6.2548499,1.35047953 3.80269006,3.80269006 C1.35047953,6.2548499 0,9.51523977 0,12.9831735 C0,16.4511072 1.35047953,19.7114971 3.80269006,22.1636569 C6.2548499,24.6158674 9.51523977,25.966347 12.9831735,25.966347 C16.4511072,25.966347 19.7114971,24.6158674 22.1636569,22.1636569 C24.6158674,19.7114971 25.966347,16.4511072 25.966347,12.9831735 C25.966347,10.056729 24.9886862,7.24730994 23.1958012,4.96691228 Z" id="XMLID_1030_"></path>
                    <path d="M5.49760624,7.65368031 C5.26107212,7.50396491 4.9480078,7.57441326 4.79824172,7.81079532 C3.64121637,9.63819493 3.12902144,11.8358791 3.35602729,13.9990487 C3.58637817,16.1943002 4.57442885,18.2644678 6.13817934,19.828269 C8.02533333,21.715423 10.5042534,22.6590253 12.9832242,22.6590253 C15.4621949,22.6590253 17.9410643,21.7154737 19.828269,19.828269 C23.6026277,16.0539103 23.6026277,9.91253801 19.828269,6.13823002 C18.2669006,4.57691228 16.2001287,3.58921637 14.0085263,3.35709162 C11.8493606,3.12826121 9.65405848,3.63645224 7.8274191,4.78780117 C7.5905809,4.93706043 7.51967641,5.25002339 7.66888499,5.48681092 C7.81814425,5.72364912 8.13110721,5.79455361 8.36789474,5.64534503 C11.8111462,3.4751306 16.2289669,3.97247563 19.1114698,6.85497856 C22.4906082,10.234117 22.4906082,15.7323314 19.1114698,19.1114698 C15.7323821,22.4906589 10.2340663,22.4906589 6.85497856,19.1114698 C4.01231189,16.2688031 3.50751657,11.7442456 5.65472125,8.35309552 C5.80438596,8.1165614 5.73408967,7.80344639 5.49760624,7.65368031 Z" id="XMLID_1029_"></path>
                    <path d="M19.5719181,13.4982066 L20.1969318,13.4982066 C20.4767992,13.4982066 20.7037544,13.2712515 20.7037544,12.991384 C20.7037544,12.7115166 20.4767992,12.4845614 20.1969318,12.4845614 L19.5719181,12.4845614 C19.2920507,12.4845614 19.0650955,12.7115166 19.0650955,12.991384 C19.0650955,13.2712515 19.292,13.4982066 19.5719181,13.4982066 Z" id="XMLID_1028_"></path>
                    <path d="M5.26259259,12.974963 C5.26259259,13.2548304 5.48954776,13.4817856 5.7694152,13.4817856 L6.39442885,13.4817856 C6.6742963,13.4817856 6.90125146,13.2548304 6.90125146,12.974963 C6.90125146,12.6950955 6.6742963,12.4681404 6.39442885,12.4681404 L5.7694152,12.4681404 C5.48954776,12.4681404 5.26259259,12.6950448 5.26259259,12.974963 Z" id="XMLID_1004_"></path>
                    <path d="M13.4982066,6.39442885 L13.4982066,5.7694152 C13.4982066,5.48954776 13.2712515,5.26259259 12.991384,5.26259259 C12.7115166,5.26259259 12.4845614,5.48954776 12.4845614,5.7694152 L12.4845614,6.39442885 C12.4845614,6.6742963 12.7115166,6.90125146 12.991384,6.90125146 C13.2712515,6.90125146 13.4982066,6.6742963 13.4982066,6.39442885 Z" id="XMLID_1001_"></path>
                    <path d="M12.4681404,19.5719181 L12.4681404,20.1969318 C12.4681404,20.4767992 12.6950955,20.7037544 12.974963,20.7037544 C13.2548304,20.7037544 13.4817856,20.4767992 13.4817856,20.1969318 L13.4817856,19.5719181 C13.4817856,19.2920507 13.2548304,19.0650955 12.974963,19.0650955 C12.6950955,19.0650955 12.4681404,19.292 12.4681404,19.5719181 Z" id="XMLID_1415_"></path>
                    <path d="M10.4427758,9.72597661 C10.2448109,9.52811306 9.9239922,9.52811306 9.72597661,9.72597661 C9.52806238,9.92389084 9.52806238,10.2448109 9.72597661,10.4427758 L11.4436491,12.1604483 C11.3120273,12.4057505 11.2371696,12.6858713 11.2371696,12.9831735 C11.2371696,13.9459337 12.0204133,14.7291774 12.9831735,14.7291774 C13.9459337,14.7291774 14.7291774,13.9459337 14.7291774,12.9831735 C14.7291774,12.6858713 14.654269,12.4057505 14.5226979,12.1604483 L17.9885029,8.69464327 C18.1864172,8.49672904 18.1864172,8.17580897 17.9885029,7.97784405 C17.790538,7.77998051 17.4697193,7.77998051 17.2717037,7.97784405 L13.8058986,11.4436491 C13.5605965,11.3120273 13.2804756,11.2371696 12.9831735,11.2371696 C12.6858713,11.2371696 12.4057505,11.312078 12.1604483,11.4436491 L10.4427758,9.72597661 Z M13.7155322,12.9831735 C13.7155322,13.3870097 13.3870097,13.7155322 12.9831735,13.7155322 C12.5793372,13.7155322 12.2508148,13.3870097 12.2508148,12.9831735 C12.2508148,12.5793372 12.5793372,12.2508148 12.9831735,12.2508148 C13.3870097,12.2508148 13.7155322,12.5793372 13.7155322,12.9831735 Z" id="XMLID_996_" fill-rule="nonzero"></path>
                    <path d="M6.85467446,6.85467446 C6.94945029,6.76040546 7.00362963,6.62964522 7.00362963,6.49635088 C7.00362963,6.36305653 6.94945029,6.23280312 6.85467446,6.13802729 C6.76040546,6.04380897 6.63010136,5.98952827 6.49635088,5.98952827 C6.36305653,5.98952827 6.2322963,6.04375828 6.13802729,6.13802729 C6.04380897,6.2322963 5.98952827,6.36305653 5.98952827,6.49635088 C5.98952827,6.63015205 6.04375828,6.76040546 6.13802729,6.85467446 C6.2322963,6.94889279 6.36305653,7.00317349 6.49635088,7.00317349 C6.63010136,7.00317349 6.76040546,6.94889279 6.85467446,6.85467446 Z" id="XMLID_980_"></path>
                    <path d="M16.4939337,1.5142846 C16.6277856,1.5142846 16.7585458,1.46051072 16.8527641,1.36578558 C16.9470331,1.27151657 17.0013138,1.14121248 17.0013138,1.00746199 C17.0013138,0.874167641 16.9470838,0.743407407 16.8527641,0.649138402 C16.7585458,0.554920078 16.6277856,0.500639376 16.4939337,0.500639376 C16.3606394,0.500639376 16.2298791,0.554869396 16.1356608,0.649138402 C16.0413918,0.743407407 15.9871111,0.874167641 15.9871111,1.00746199 C15.9871111,1.14126316 16.0413411,1.27151657 16.1356608,1.36578558 C16.2298791,1.46051072 16.3606394,1.5142846 16.4939337,1.5142846 Z" id="XMLID_979_"></path>
                </g>
            </g>
        </g>
    </g>
</svg>