<?xml version="1.0" encoding="UTF-8"?>
<svg width="24px" height="20px" viewBox="0 0 24 20" version="1.1" xmlns="http://www.w3.org/2000/svg" xmlns:xlink="http://www.w3.org/1999/xlink">
    <!-- Generator: Sketch 52.6 (67491) - http://www.bohemiancoding.com/sketch -->
    <title>twitter</title>
    <desc>Created with Sketch.</desc>
    <g id="Page-1" stroke="none" stroke-width="1" fill="none" fill-rule="evenodd">
        <g id="smokePro-vizitka" transform="translate(-962.000000, -952.000000)" fill="#7A7A7A" fill-rule="nonzero">
            <g id="contact" transform="translate(740.000000, 952.000000)">
                <g id="Group-2" transform="translate(222.000000, 0.000000)">
                    <g id="twitter">
                        <path d="M24,2.67101078 C22.4902954,2.7418554 22.5232544,2.73607596 22.3526001,2.75061772 L23.2467041,0.150806844 C23.2467041,0.150806844 20.4558105,1.19613777 19.748291,1.38313028 C17.8901367,-0.317326918 15.1281738,-0.392459459 13.1535645,0.84321975 C11.53656,1.85536555 10.6686401,3.59348223 10.9581299,5.62504473 C7.8110962,5.18040157 5.15954588,3.66153033 3.06610106,1.10105682 L2.40399169,0.291377496 L1.90924073,1.21645898 C1.28393555,2.38539513 1.07629397,3.72193469 1.32440184,4.97979946 C1.42620848,5.49584654 1.59924319,5.98803017 1.83892823,6.44889302 L1.27093505,6.2248003 L1.20355223,7.19108356 C1.13525391,8.17265431 1.45623778,9.31847275 2.06231691,10.2558588 C2.2329712,10.5198482 2.45269777,10.8097519 2.73120117,11.0957404 L2.43768309,11.0498778 L2.79583739,12.1571045 C3.26660156,13.6118428 4.24438477,14.7373399 5.51330569,15.3630097 C4.2460327,15.9105641 3.22229006,16.2599398 1.53955078,16.8235274 L0,17.3388287 L1.42199709,18.1304241 C1.96417237,18.4322594 3.88000491,19.4403037 5.77294922,19.7426983 C9.98071289,20.4146036 14.7182007,19.8674222 17.9075318,16.9428446 C20.5938721,14.4795028 21.4753418,10.975491 21.2922363,7.32904412 C21.2645874,6.77701545 21.4130859,6.25015522 21.7104492,5.84578163 C22.3060913,5.03610226 23.9963379,2.67641733 24,2.67101078 Z M20.5859985,4.98818894 C20.0921631,5.65953486 19.8447876,6.51694113 19.8890991,7.40212593 C20.0738526,11.0802664 19.0909424,13.9326943 16.9674683,15.8798025 C14.4869385,18.1544739 10.4859009,19.0473025 5.99066161,18.3293483 C5.17657472,18.1994044 4.33520508,17.9083821 3.63885497,17.6177328 C5.04968259,17.1234984 6.13916016,16.6829567 7.89862059,15.8350586 L10.3547974,14.6513942 L7.64300536,14.4746556 C6.34405519,14.3900149 5.26245117,13.7490576 4.5975952,12.7083875 C4.95062255,12.687507 5.29101563,12.6293398 5.62994386,12.5331403 L8.21630859,11.7997121 L5.60833739,11.1494331 C4.34106445,10.8334289 3.61871339,10.061409 3.23583984,9.46929719 C2.98443605,9.0802111 2.82019041,8.68161695 2.72167969,8.31415712 C2.9831543,8.38556104 3.28802489,8.43645729 3.77966306,8.48604855 L6.19354247,8.72915743 L4.28100586,7.21009972 C2.90295413,6.1157369 2.35070803,4.47158255 2.75555419,2.89100195 C7.05633544,7.4328874 12.1060181,7.09152826 12.6143189,7.21159119 C12.5024414,6.10511021 12.4995117,6.10250013 12.4702148,5.99716538 C11.8192749,3.65425942 13.2458496,2.46462923 13.8892822,2.06193353 C15.2332763,1.22093338 17.3666382,1.09415881 18.8442993,2.4797303 C19.1634521,2.77876915 19.5950318,2.8964085 19.9989624,2.79424311 C20.3615112,2.70251798 20.6590576,2.6053863 20.9503784,2.49967867 L20.3439331,4.26296379 L21.118103,4.2635231 C20.9719849,4.46300664 20.7967529,4.70182755 20.5859985,4.98818894 Z" id="Shape"></path>
                    </g>
                </g>
            </g>
        </g>
    </g>
</svg>